#!OML:ASF E:\acrobat2\Project_11_07_03\Capture day 1\Session 1\Acrobat.ASF
:FULLY-SPECIFIED
:DEGREES
334
root 9.5328 17.7379 -11.1945 12.5726 -0.130011 0.406404
lowerback 18.4024 2.10283 -0.269537
upperback 10.7789 2.65775 -2.30287
thorax 1.38389 1.39476 -2.72268
lowerneck 2.91267 2.02566 -1.59814
upperneck -24.2097 2.31348 -2.0943
head -7.9299 1.49519 -0.605932
rclavicle -2.98177e-015 1.81888e-014
rhumerus -12.6289 12.1094 -82.1734
rradius 27.9165
rwrist -8.96922
rhand -8.26458 -28.8002
rfingers 7.12502
rthumb 17.6542 -58.0187
lclavicle -2.98177e-015 1.81888e-014
lhumerus 2.02712 -31.7315 66.4805
lradius 23.4766
lwrist 20.2909
lhand -0.606686 -13.4444
lfingers 7.12502
lthumb 25.0091 14.9385
rfemur -15.2758 -7.94367 14.2874
rtibia 46.2944
rfoot -22.9889 0.0657382
rtoes -8.34242
lfemur -41.2265 4.20875 -19.533
ltibia 29.4568
lfoot 3.36183 0.34988
ltoes 30.3316
335
root 9.51212 17.7303 -11.2492 12.2021 -0.27362 0.463328
lowerback 17.9903 2.13365 -0.31745
upperback 10.6006 2.69558 -2.36774
thorax 1.40338 1.41229 -2.75667
lowerneck 2.87109 2.07512 -1.55859
upperneck -24.0614 2.38774 -2.09838
head -7.87148 1.52535 -0.617057
rclavicle 4.67144e-015 1.05356e-014
rhumerus -13.3239 11.9053 -82.4645
rradius 27.8636
rwrist -8.9523
rhand -8.2136 -28.7554
rfingers 7.12502
rthumb 17.7033 -57.9695
lclavicle 4.67144e-015 1.05356e-014
lhumerus 0.719302 -30.7958 67.2341
lradius 23.2442
lwrist 20.1478
lhand -0.637675 -13.4033
lfingers 7.12502
lthumb 24.9795 14.9838
rfemur -14.3972 -8.06403 14.0935
rtibia 45.4076
rfoot -22.724 -0.122351
rtoes -7.40219
lfemur -40.7811 4.24658 -19.4664
ltibia 29.0806
lfoot 3.45744 0.572649
ltoes 30.3198
336
root 9.4903 17.7212 -11.3059 11.7999 -0.441066 0.481092
lowerback 17.5494 2.17084 -0.340994
upperback 10.465 2.74722 -2.41596
thorax 1.48591 1.4379 -2.78632
lowerneck 2.91291 2.09108 -1.41892
upperneck -24.065 2.39435 -2.22613
head -7.87606 1.52707 -0.683944
rclavicle 1.8487e-014 -1.15295e-014
rhumerus -13.9195 11.6871 -82.7319
rradius 27.7957
rwrist -8.91661
rhand -8.20173 -28.6756
rfingers 7.12502
rthumb 17.7147 -57.8887
lclavicle 1.8487e-014 -1.15295e-014
lhumerus -0.491869 -29.9214 67.889
lradius 23.0606
lwrist 20.0254
lhand -0.622805 -13.2646
lfingers 7.12502
lthumb 24.9937 15.1206
rfemur -13.5051 -8.09998 13.954
rtibia 44.4845
rfoot -22.3432 -0.353522
rtoes -6.2327
lfemur -40.3019 4.31678 -19.3368
ltibia 28.6899
lfoot 3.56123 0.806312
ltoes 30.2775
337
root 9.46743 17.7106 -11.365 11.3737 -0.61737 0.458076
lowerback 17.1019 2.21116 -0.319378
upperback 10.3527 2.81018 -2.45337
thorax 1.60055 1.47125 -2.83028
lowerneck 2.99212 2.07603 -1.20983
upperneck -24.1371 2.3474 -2.42436
head -7.90859 1.50404 -0.783324
rclavicle -1.76918e-014 1.53064e-014
rhumerus -14.4695 11.4414 -82.9854
rradius 27.7512
rwrist -8.86389
rhand -8.16704 -28.6167
rfingers 7.12502
rthumb 17.7481 -57.8268
lclavicle -1.76918e-014 1.53064e-014
lhumerus -1.63129 -29.2014 68.4483
lradius 22.9299
lwrist 19.9518
lhand -0.669752 -13.1311
lfingers 7.12502
lthumb 24.9487 15.2602
rfemur -12.6064 -8.05784 13.879
rtibia 43.5207
rfoot -21.8353 -0.645719
rtoes -4.88266
lfemur -39.8054 4.41607 -19.146
ltibia 28.3011
lfoot 3.66423 1.03951
ltoes 30.2411
338
root 9.44364 17.6987 -11.4271 10.9247 -0.78978 0.424785
lowerback 16.6715 2.25521 -0.26788
upperback 10.2543 2.882 -2.48957
thorax 1.72455 1.51061 -2.89083
lowerneck 3.05739 2.03976 -0.979679
upperneck -24.1906 2.27256 -2.62621
head -7.93232 1.46582 -0.884993
rclavicle -2.92213e-014 2.78299e-015
rhumerus -14.9982 11.1731 -83.2249
rradius 27.7405
rwrist -8.82575
rhand -8.07299 -28.6166
rfingers 7.12502
rthumb 17.8386 -57.8184
lclavicle -2.92213e-014 2.78299e-015
lhumerus -2.72155 -28.6478 68.9377
lradius 22.844
lwrist 19.8832
lhand -0.820778 -13.0921
lfingers 7.12502
lthumb 24.804 15.3192
rfemur -11.6981 -7.95168 13.8345
rtibia 42.5215
rfoot -21.2544 -0.954996
rtoes -3.46917
lfemur -39.2981 4.52814 -18.9342
ltibia 27.925
lfoot 3.75998 1.26018
ltoes 30.209
